<svg width="30" height="28" viewBox="0 0 30 28" fill="none" xmlns="http://www.w3.org/2000/svg">
<path d="M15 0C6.5625 0 0 6.32258 0 14.4516C0 23.9355 8.90625 28 10.3125 28C11.25 28 11.25 27.5484 11.25 27.0968V24.8387C7.96875 25.7419 6.5625 23.9355 6.09375 22.5806C6.09375 22.5806 6.09375 22.129 5.15625 21.2258C4.6875 20.7742 2.8125 19.871 4.6875 19.871C6.09375 19.871 7.03125 21.6774 7.03125 21.6774C8.4375 23.4839 10.3125 23.0323 11.25 22.5806C11.25 21.6774 12.1875 20.7742 12.1875 20.7742C8.4375 20.3226 5.625 18.9677 5.625 14C5.625 12.1935 6.09375 10.8387 7.03125 9.93548C7.03125 9.93548 6.09375 8.12903 7.03125 5.87097C7.03125 5.87097 9.375 5.87097 11.25 7.67742C12.6562 6.77419 17.3438 6.77419 18.75 7.67742C20.625 5.87097 22.9688 5.87097 22.9688 5.87097C23.9062 9.03226 22.9688 9.93548 22.9688 9.93548C23.9062 10.8387 24.375 12.1935 24.375 14C24.375 18.9677 21.0938 20.3226 17.8125 20.7742C18.2812 21.2258 18.75 22.129 18.75 23.4839V27.0968C18.75 27.5484 18.75 28 19.6875 28C21.0938 28 30 23.9355 30 14.4516C30 6.32258 23.4375 0 15 0Z" fill="black"/>
</svg>
